<svg width="130" height="130" viewBox="0 0 130 130" fill="none" xmlns="http://www.w3.org/2000/svg">
<rect width="130" height="130" rx="16" fill="#F7F8FA"/>
<rect x="0.5" y="0.5" width="129" height="129" rx="15.5" stroke="#DBE1E8" stroke-opacity="0.6"/>
<path fill-rule="evenodd" clip-rule="evenodd" d="M57.957 127.182H106.382C106.382 127.182 113.4 126.428 119.044 123.671C124.688 120.915 127.088 112.444 127.088 112.444V85.4262L103.5 41.5L34.2637 107.292L57.957 127.182Z" fill="url(#paint0_linear_597_2707)"/>
<path fill-rule="evenodd" clip-rule="evenodd" d="M46.8197 30.0037C48.0519 25.696 48.6679 23.5422 49.9769 22.1367C51.1283 20.9004 52.6415 20.0603 54.2997 19.7369C56.1848 19.3692 58.3386 19.9853 62.6463 21.2174L94.0218 30.1922C98.3295 31.4243 100.483 32.0404 101.889 33.3494C103.125 34.5008 103.965 36.014 104.289 37.6722C104.656 39.5573 104.04 41.7111 102.808 46.0188L89.6726 91.9403L88.886 94.434C87.605 98.4947 86.9645 100.525 85.6905 101.866C84.569 103.046 83.1141 103.856 81.5202 104.187C79.7095 104.564 77.6464 104.038 73.5202 102.987L70.9517 102.333L41.8267 94.0024C37.5191 92.7702 35.3652 92.1541 33.9597 90.8452C32.7234 89.6938 31.8833 88.1806 31.5599 86.5224C31.1922 84.6373 31.8083 82.4834 33.0404 78.1758L46.8197 30.0037Z" fill="url(#paint1_linear_597_2707)" stroke="white"/>
<path fill-rule="evenodd" clip-rule="evenodd" d="M40.036 27.2397C40.8791 22.9026 45.0784 20.0701 49.4155 20.9132L90.8735 28.9718C95.2106 29.8148 98.043 34.0142 97.2 38.3513L87.1705 89.9488L85.6169 96.9304C84.6951 101.073 80.6993 103.775 76.5117 103.087L69.4188 101.922L34.9705 95.2264C30.6334 94.3833 27.8009 90.184 28.644 85.8469L40.036 27.2397Z" fill="url(#paint2_linear_597_2707)" stroke="white"/>
<rect x="47.1836" y="51.5117" width="34.9403" height="2.68772" rx="1.34386" transform="rotate(11 47.1836 51.5117)" fill="#4B5C72"/>
<rect x="45.6602" y="59.3398" width="34.9403" height="2.68772" rx="1.34386" transform="rotate(11 45.6602 59.3398)" fill="#7D8D9F"/>
<rect x="44.0537" y="67.6074" width="29.1169" height="2.68772" rx="1.34386" transform="rotate(11 44.0537 67.6074)" fill="#7D8D9F"/>
<rect x="42.4473" y="75.873" width="17.4702" height="2.68772" rx="1.34386" transform="rotate(11 42.4473 75.873)" fill="#7D8D9F"/>
<rect x="65.04" y="39.4688" width="20.6058" height="2.68772" rx="1.34386" transform="rotate(11 65.04 39.4688)" fill="#4B5C72"/>
<rect x="62.915" y="46.6914" width="20.6058" height="2.68772" rx="1.34386" transform="rotate(11 62.915 46.6914)" fill="#4B5C72"/>
<circle cx="54.5098" cy="41.982" r="5.37544" transform="rotate(11 54.5098 41.982)" fill="url(#paint3_linear_597_2707)"/>
<g filter="url(#filter0_ddd_597_2707)">
<path fill-rule="evenodd" clip-rule="evenodd" d="M21.748 34.4008C21.748 31.0405 21.748 29.3603 22.402 28.0768C22.9772 26.9479 23.8951 26.03 25.0241 25.4547C26.3076 24.8008 27.9877 24.8008 31.348 24.8008H76.6519C80.0122 24.8008 81.6923 24.8008 82.9758 25.4547C84.1048 26.03 85.0227 26.9479 85.5979 28.0768C86.2519 29.3603 86.2519 31.0405 86.2519 34.4008V91.8848V99.0557C86.2519 102.416 86.2519 104.096 85.5979 105.38C85.0227 106.509 84.1048 107.427 82.9758 108.002C81.6923 108.656 80.0122 108.656 76.6519 108.656H69.4809H31.3481C27.9877 108.656 26.3076 108.656 25.0241 108.002C23.8951 107.427 22.9772 106.509 22.402 105.38C21.748 104.096 21.748 102.416 21.748 99.0557V34.4008Z" fill="white"/>
</g>
<rect x="34.6484" y="63.375" width="38.7023" height="2.9771" rx="1.48855" fill="#4B5C72"/>
<rect x="53" y="51" width="20" height="3" rx="1.5" fill="#4B5C72"/>
<rect x="34.6484" y="72.7031" width="38.2519" height="2.9771" rx="1.48855" fill="#7D8D9F"/>
<rect x="34.6484" y="82.0312" width="19.3511" height="2.9771" rx="1.48855" fill="#7D8D9F"/>
<path fill-rule="evenodd" clip-rule="evenodd" d="M46.689 52.4838L43.8675 51.202C43.5029 51.0364 43.2724 50.6985 43.2724 50.3279V49.732C43.2724 49.4688 43.3773 49.2174 43.5389 49.0097C43.6994 48.8037 43.8437 48.5893 43.9719 48.368C44.3063 47.7908 45.0445 47.3039 45.0445 46.6368V45.5637C45.0445 45.1287 44.7494 44.7158 44.7494 44.2808V43.6215C44.7494 43.4846 44.7608 43.3484 44.7585 43.2116C44.7486 42.6287 44.4565 41 41.4996 41C38.5433 41 38.2514 42.6287 38.2415 43.2116C38.2392 43.3484 38.2506 43.4846 38.2506 43.6215V44.2804C38.2506 44.7157 37.9547 45.1285 37.9547 45.5637V46.6368C37.9547 47.1656 38.4191 47.6095 38.6408 48.0896C38.7129 48.2457 38.7895 48.3905 38.8655 48.5218C39.1817 49.0677 39.4317 49.671 39.4317 50.3019C39.4317 50.6599 39.2167 50.9889 38.8718 51.1612L36.235 52.4675C35.4741 52.844 35 53.5696 35 54.3569C35 54.8778 35.3291 55.3419 35.8207 55.5143L38.71 56.5277C40.5057 57.1574 42.4943 57.1574 44.2884 56.5277L47.2298 55.4965C47.6911 55.3348 48 54.8992 48 54.4103C48 53.5941 47.4916 52.8485 46.689 52.4838Z" fill="#4B5C72"/>
<path d="M59.9327 92.7346C63.6491 90.8393 64.1038 88.3805 63.3846 88.0171C62.0059 87.3203 61.2021 91.1708 61.2189 92.7409C61.2407 94.7905 63.3832 95.4715 60.3598 97.0177C57.505 96.0652 62.0606 93.344 64.3882 91.3288C64.3584 91.5593 64.7727 91.6859 65.1277 91.6428C65.4827 91.5997 65.8201 91.4248 66.0885 91.2321C66.6225 90.8485 66.9694 90.3625 67.0373 89.9028C67.0598 90.2618 67.2292 91.3588 67.793 91.3246C68.4102 91.2872 68.8301 90.303 68.7181 89.7647C68.9049 89.8528 69.4662 90.696 70.0393 90.2085C70.238 90.0394 70.132 89.8856 70.5726 89.7975C71.1171 89.6886 71.3664 89.6588 71.911 89.5499" stroke="#7D8D9F" stroke-width="2" stroke-miterlimit="10" stroke-linecap="round" stroke-linejoin="round"/>
<circle cx="82" cy="88" r="16" fill="url(#paint4_linear_597_2707)"/>
<path d="M76.3386 94.4015C73.1767 91.4197 74.8065 88.0167 76.1101 86.6338L81.1329 81.3041C81.4755 80.9115 81.8955 80.5938 82.3666 80.371C82.8376 80.1483 83.3497 80.0252 83.8705 80.0095C84.3914 79.9939 84.9099 80.086 85.3935 80.28C85.8772 80.4741 86.3155 80.766 86.6811 81.1373C87.0737 81.4799 87.3914 81.8999 87.6142 82.371C87.837 82.8421 87.96 83.3541 87.9757 83.875C87.9914 84.3959 87.8993 84.9144 87.7052 85.398C87.5111 85.8816 87.2193 86.32 86.8479 86.6855L81.8218 92.0161C81.6146 92.2491 81.3619 92.4374 81.0793 92.5693C80.7968 92.7011 80.4902 92.7739 80.1785 92.783C79.8668 92.7922 79.5565 92.7375 79.2666 92.6224C78.9768 92.5073 78.7135 92.3342 78.493 92.1137C78.26 91.9064 78.0717 91.6538 77.9398 91.3712C77.808 91.0886 77.7352 90.782 77.7261 90.4703C77.7169 90.1586 77.7716 89.8483 77.8867 89.5585C78.0018 89.2686 78.1749 89.0054 78.3954 88.7849L83.4215 83.4544C83.5653 83.3071 83.7612 83.2223 83.9669 83.218C84.1726 83.2138 84.3718 83.2905 84.5215 83.4317C84.6712 83.5729 84.7595 83.7672 84.7673 83.9729C84.7752 84.1785 84.7019 84.379 84.5634 84.5311L79.5373 89.8658C79.4573 89.9356 79.3938 90.0222 79.3512 90.1194C79.3087 90.2167 79.2883 90.3221 79.2914 90.4282C79.2945 90.5343 79.3211 90.6383 79.3692 90.7329C79.4174 90.8275 79.4859 90.9102 79.5698 90.9751C79.6403 91.0554 79.7278 91.119 79.8259 91.1613C79.924 91.2037 80.0303 91.2237 80.1371 91.2199C80.2439 91.2162 80.3485 91.1888 80.4434 91.1396C80.5383 91.0905 80.6211 91.021 80.6858 90.9359L85.7052 85.6121C85.9326 85.3954 86.1118 85.1333 86.2312 84.8428C86.3507 84.5523 86.4076 84.2399 86.3984 83.926C86.3892 83.612 86.3141 83.3035 86.1778 83.0205C86.0416 82.7375 85.8473 82.4863 85.6076 82.2833C85.3906 82.0557 85.1281 81.8764 84.8372 81.757C84.5462 81.6376 84.2334 81.5808 83.9191 81.5903C83.6047 81.5998 83.2959 81.6755 83.0127 81.8122C82.7296 81.949 82.4784 82.1439 82.2755 82.3843L77.2528 87.7114C76.9809 88.0042 74.6605 90.6615 77.4196 93.2597C80.1787 95.8578 82.6917 93.3848 82.9695 93.0928L87.9939 87.7648C88.1367 87.6133 88.3338 87.5247 88.5419 87.5185C88.75 87.5123 88.9521 87.5891 89.1036 87.7319C89.2551 87.8747 89.3437 88.0718 89.3499 88.2799C89.3561 88.488 89.2794 88.6901 89.1366 88.8416L84.1105 94.1721C82.801 95.5567 79.5014 97.3833 76.3386 94.4015Z" fill="white"/>
<defs>
<filter id="filter0_ddd_597_2707" x="19.748" y="22.8008" width="72.5039" height="90.8555" filterUnits="userSpaceOnUse" color-interpolation-filters="sRGB">
<feFlood flood-opacity="0" result="BackgroundImageFix"/>
<feColorMatrix in="SourceAlpha" type="matrix" values="0 0 0 0 0 0 0 0 0 0 0 0 0 0 0 0 0 0 127 0" result="hardAlpha"/>
<feOffset dx="3" dy="2"/>
<feGaussianBlur stdDeviation="1.5"/>
<feColorMatrix type="matrix" values="0 0 0 0 0 0 0 0 0 0 0 0 0 0 0 0 0 0 0.08 0"/>
<feBlend mode="normal" in2="BackgroundImageFix" result="effect1_dropShadow_597_2707"/>
<feColorMatrix in="SourceAlpha" type="matrix" values="0 0 0 0 0 0 0 0 0 0 0 0 0 0 0 0 0 0 127 0" result="hardAlpha"/>
<feOffset dx="1" dy="1"/>
<feGaussianBlur stdDeviation="1.5"/>
<feColorMatrix type="matrix" values="0 0 0 0 0 0 0 0 0 0 0 0 0 0 0 0 0 0 0.08 0"/>
<feBlend mode="normal" in2="effect1_dropShadow_597_2707" result="effect2_dropShadow_597_2707"/>
<feColorMatrix in="SourceAlpha" type="matrix" values="0 0 0 0 0 0 0 0 0 0 0 0 0 0 0 0 0 0 127 0" result="hardAlpha"/>
<feOffset/>
<feGaussianBlur stdDeviation="0.5"/>
<feColorMatrix type="matrix" values="0 0 0 0 0.164706 0 0 0 0 0.2 0 0 0 0 0.243137 0 0 0 0.3 0"/>
<feBlend mode="normal" in2="effect2_dropShadow_597_2707" result="effect3_dropShadow_597_2707"/>
<feBlend mode="normal" in="SourceGraphic" in2="effect3_dropShadow_597_2707" result="shape"/>
</filter>
<linearGradient id="paint0_linear_597_2707" x1="132.633" y1="91.5504" x2="100.074" y2="32.4477" gradientUnits="userSpaceOnUse">
<stop stop-opacity="0.01"/>
<stop offset="1" stop-opacity="0.1"/>
</linearGradient>
<linearGradient id="paint1_linear_597_2707" x1="80.7706" y1="-8.27009" x2="13.5034" y2="25.302" gradientUnits="userSpaceOnUse">
<stop stop-color="#FF6A35"/>
<stop offset="1" stop-color="#FF1F74"/>
</linearGradient>
<linearGradient id="paint2_linear_597_2707" x1="17.0544" y1="64.7793" x2="78.521" y2="108.033" gradientUnits="userSpaceOnUse">
<stop stop-color="#00CCFF"/>
<stop offset="1" stop-color="#0A5DF1"/>
</linearGradient>
<linearGradient id="paint3_linear_597_2707" x1="49.1343" y1="36.6066" x2="49.1343" y2="47.3575" gradientUnits="userSpaceOnUse">
<stop stop-color="#31AEF3"/>
<stop offset="1" stop-color="#1676E2"/>
</linearGradient>
<linearGradient id="paint4_linear_597_2707" x1="78.1529" y1="57.9094" x2="54.9814" y2="85.4984" gradientUnits="userSpaceOnUse">
<stop stop-color="#FF6A35"/>
<stop offset="1" stop-color="#FF1F74"/>
</linearGradient>
</defs>
</svg>