<svg width="201" height="200" viewBox="0 0 201 200" fill="none" xmlns="http://www.w3.org/2000/svg">
<path d="M25.9786 199.5C11.9778 199.5 0.588867 188.111 0.588867 174.11V25.8898C0.588867 11.8889 11.9778 0.5 25.9786 0.5H174.199C188.2 0.5 199.589 11.8889 199.589 25.8898V174.11C199.589 188.111 188.2 199.5 174.199 199.5H25.9786Z" fill="#F6F7F9" stroke="#DCE1E7"/>
<g filter="url(#filter0_d_56_3481)">
<path d="M142.331 121.207H57.634C53.9533 121.207 50.9727 118.463 50.9727 115.074V36.34C50.9727 32.9512 53.9533 30.207 57.634 30.207H142.311C145.992 30.207 148.973 32.9512 148.973 36.34V115.074C148.993 118.463 146.012 121.207 142.331 121.207Z" fill="#FDFFFF"/>
</g>
<g filter="url(#filter1_d_56_3481)">
<path d="M146.8 115.207H53.1669C49.1917 115.207 45.9727 112.382 45.9727 108.892V31.5217C45.9727 28.0325 49.1917 25.207 53.1669 25.207H146.778C150.754 25.207 153.973 28.0325 153.973 31.5217V108.873C153.994 112.363 150.775 115.207 146.8 115.207Z" fill="#FDFFFF"/>
</g>
<g filter="url(#filter2_d_56_3481)">
<path d="M151.8 109.207H48.1669C44.1917 109.207 40.9727 106.382 40.9727 102.892V25.5217C40.9727 22.0325 44.1917 19.207 48.1669 19.207H151.778C155.754 19.207 158.973 22.0325 158.973 25.5217V102.873C158.994 106.363 155.775 109.207 151.8 109.207Z" fill="#FDFFFF"/>
</g>
<rect x="111.312" y="81.207" width="6" height="16" fill="#00BCD4"/>
<rect x="120.312" y="77.207" width="6" height="20" fill="#00BCD4"/>
<rect x="129.312" y="69.207" width="6" height="28" fill="#00BCD4"/>
<rect x="138.312" y="79.207" width="6" height="18" fill="#00BCD4"/>
<path d="M88.9419 54.9996C90.432 52.5774 91.2495 49.8019 91.3104 46.9587C91.3712 44.1156 90.6732 41.3076 89.2882 38.8239C87.9031 36.3402 85.8811 34.2705 83.4303 32.8279C80.9795 31.3853 78.1885 30.6219 75.3446 30.6164L75.3135 46.6163L88.9419 54.9996Z" fill="#00BCD4"/>
<path d="M61.7867 55.163C63.3058 57.5671 65.4382 59.5229 67.9644 60.829C70.4906 62.1351 73.3193 62.7443 76.1592 62.5939C78.9991 62.4435 81.7476 61.539 84.1217 59.9734C86.4959 58.4079 88.4098 56.2379 89.6666 53.6868L75.3131 46.6163L61.7867 55.163Z" fill="#3F51B5"/>
<path d="M75.3135 30.6163C72.4365 30.6163 69.6126 31.392 67.1394 32.8618C64.6661 34.3315 62.6348 36.4409 61.2595 38.9679C59.8842 41.4948 59.2157 44.3459 59.3244 47.2208C59.4331 50.0957 60.315 52.8881 61.8771 55.304L75.3135 46.6163V30.6163Z" fill="#448AFF"/>
<rect x="103.312" y="34.207" width="42" height="4" rx="2" fill="#92ABCF"/>
<rect x="103.312" y="45.207" width="42" height="4" rx="2" fill="#D1DCF0"/>
<rect x="103.312" y="53.207" width="37.8" height="4" rx="2" fill="#D1DCF0"/>
<rect x="55.3125" y="71.207" width="45.2717" height="4" rx="2" fill="#92ABCF"/>
<rect x="55.3125" y="82.207" width="45.2717" height="4" rx="2" fill="#D1DCF0"/>
<rect x="55.3125" y="90.207" width="31.7758" height="4" rx="2" fill="#D1DCF0"/>
<path d="M167.736 158.232C163.018 157.045 158.081 153.827 156.362 152.249C155.925 151.843 155.847 151.405 155.847 150.796V144.859C155.847 143 157.847 142.219 158.878 140.422C159.909 138.61 160.299 135.954 160.299 135.954C160.299 135.954 163.268 135.954 163.268 131.502C163.268 127.05 160.299 127.05 160.299 127.05V119.629C160.299 108.865 149.27 109.13 148.411 109.13C147.536 109.13 136.553 108.865 136.553 119.629V127.05C136.553 127.05 133.585 127.05 133.585 131.502C133.585 135.954 136.553 135.954 136.553 135.954C136.553 135.954 136.944 138.61 137.975 140.422C139.006 142.235 141.005 143 141.005 144.859V150.796C141.005 151.39 140.943 151.843 140.49 152.249C138.771 153.827 133.85 157.045 129.117 158.232C122.586 159.669 123.149 168.403 123.149 168.403C123.149 168.403 140.99 175.995 148.411 175.995C155.831 175.995 173.641 168.449 173.641 168.449C173.641 168.449 174.266 159.654 167.736 158.232Z" fill="url(#paint0_linear_56_3481)"/>
<path d="M72.0184 158.232C67.3004 157.045 62.3636 153.827 60.6452 152.249C60.2077 151.843 60.1296 151.405 60.1296 150.796V144.859C60.1296 143 62.1293 142.219 63.1604 140.422C64.1915 138.61 64.5821 135.954 64.5821 135.954C64.5821 135.954 67.5503 135.954 67.5503 131.502C67.5503 127.05 64.5821 127.05 64.5821 127.05V119.629C64.5821 108.865 53.5525 109.13 52.6933 109.13C51.8184 109.13 40.8357 108.865 40.8357 119.629V127.05C40.8357 127.05 37.8675 127.05 37.8675 131.502C37.8675 135.954 40.8357 135.954 40.8357 135.954C40.8357 135.954 41.2263 138.61 42.2574 140.422C43.2885 142.235 45.2882 143 45.2882 144.859V150.796C45.2882 151.39 45.2257 151.843 44.7726 152.249C43.0541 153.827 38.133 157.045 33.3994 158.232C26.8692 159.669 27.4316 168.403 27.4316 168.403C27.4316 168.403 45.2726 175.995 52.6933 175.995C60.114 175.995 77.9237 168.449 77.9237 168.449C77.9237 168.449 78.5486 159.654 72.0184 158.232Z" fill="url(#paint1_linear_56_3481)"/>
<path d="M127.444 162.96C120.742 161.273 113.729 156.701 111.288 154.46C110.667 153.883 110.556 153.261 110.556 152.396V143.963C110.556 141.322 113.396 140.212 114.861 137.66C116.326 135.086 116.88 131.313 116.88 131.313C116.88 131.313 121.097 131.313 121.097 124.988C121.097 118.663 116.88 118.663 116.88 118.663V108.121C116.88 92.8306 101.212 93.2079 99.9918 93.2079C98.749 93.2079 83.1475 92.8306 83.1475 108.121V118.663C83.1475 118.663 78.9309 118.663 78.9309 124.988C78.9309 131.313 83.1475 131.313 83.1475 131.313C83.1475 131.313 83.7023 135.086 85.167 137.66C86.6318 140.234 89.4724 141.322 89.4724 143.963V152.396C89.4724 153.239 89.3837 153.883 88.7401 154.46C86.2989 156.701 79.3082 161.273 72.5838 162.96C63.3072 165.001 64.1061 177.407 64.1061 177.407C64.1061 177.407 89.4502 188.193 99.9918 188.193C110.533 188.193 135.833 177.474 135.833 177.474C135.833 177.474 136.721 164.979 127.444 162.96Z" fill="url(#paint2_linear_56_3481)"/>
<g filter="url(#filter3_d_56_3481)">
<path d="M100.921 162.153L104.33 168.933L111.953 170.021C112.82 170.144 113.167 171.191 112.539 171.791L107.023 177.069L108.325 184.522C108.473 185.37 107.566 186.016 106.79 185.616L99.9721 182.097L93.1539 185.616C92.3781 186.016 91.4712 185.37 91.6194 184.522L92.9216 177.069L87.4055 171.791C86.7778 171.191 87.1242 170.144 87.9917 170.021L95.6147 168.933L99.0238 162.153C99.4117 161.381 100.533 161.381 100.921 162.153Z" fill="url(#paint3_linear_56_3481)"/>
</g>
<g filter="url(#filter4_d_56_3481)">
<path d="M149.076 156.761L151.518 161.619L156.979 162.397C157.6 162.486 157.848 163.236 157.399 163.666L153.447 167.446L154.38 172.785C154.486 173.392 153.837 173.856 153.281 173.569L148.397 171.048L143.513 173.569C142.957 173.856 142.308 173.392 142.414 172.785L143.346 167.446L139.395 163.666C138.945 163.236 139.194 162.486 139.815 162.397L145.276 161.618L147.718 156.761C147.996 156.209 148.798 156.209 149.076 156.761Z" fill="url(#paint4_linear_56_3481)"/>
</g>
<g filter="url(#filter5_d_56_3481)">
<path d="M53.0763 156.761L55.5184 161.619L60.9789 162.397C61.6003 162.486 61.8484 163.236 61.3988 163.666L57.4475 167.446L58.3802 172.785C58.4864 173.392 57.8368 173.856 57.281 173.569L52.3969 171.048L47.5129 173.569C46.9571 173.856 46.3075 173.392 46.4137 172.785L47.3465 167.446L43.3951 163.666C42.9455 163.236 43.1936 162.486 43.815 162.397L49.2756 161.618L51.7176 156.761C51.9955 156.209 52.7984 156.209 53.0763 156.761Z" fill="url(#paint5_linear_56_3481)"/>
</g>
<defs>
<filter id="filter0_d_56_3481" x="48.9727" y="29.207" width="102" height="95" filterUnits="userSpaceOnUse" color-interpolation-filters="sRGB">
<feFlood flood-opacity="0" result="BackgroundImageFix"/>
<feColorMatrix in="SourceAlpha" type="matrix" values="0 0 0 0 0 0 0 0 0 0 0 0 0 0 0 0 0 0 127 0" result="hardAlpha"/>
<feOffset dy="1"/>
<feGaussianBlur stdDeviation="1"/>
<feComposite in2="hardAlpha" operator="out"/>
<feColorMatrix type="matrix" values="0 0 0 0 0 0 0 0 0 0 0 0 0 0 0 0 0 0 0.15 0"/>
<feBlend mode="normal" in2="BackgroundImageFix" result="effect1_dropShadow_56_3481"/>
<feBlend mode="normal" in="SourceGraphic" in2="effect1_dropShadow_56_3481" result="shape"/>
</filter>
<filter id="filter1_d_56_3481" x="43.9727" y="24.207" width="112" height="94" filterUnits="userSpaceOnUse" color-interpolation-filters="sRGB">
<feFlood flood-opacity="0" result="BackgroundImageFix"/>
<feColorMatrix in="SourceAlpha" type="matrix" values="0 0 0 0 0 0 0 0 0 0 0 0 0 0 0 0 0 0 127 0" result="hardAlpha"/>
<feOffset dy="1"/>
<feGaussianBlur stdDeviation="1"/>
<feComposite in2="hardAlpha" operator="out"/>
<feColorMatrix type="matrix" values="0 0 0 0 0 0 0 0 0 0 0 0 0 0 0 0 0 0 0.15 0"/>
<feBlend mode="normal" in2="BackgroundImageFix" result="effect1_dropShadow_56_3481"/>
<feBlend mode="normal" in="SourceGraphic" in2="effect1_dropShadow_56_3481" result="shape"/>
</filter>
<filter id="filter2_d_56_3481" x="36.9727" y="16.207" width="126" height="98" filterUnits="userSpaceOnUse" color-interpolation-filters="sRGB">
<feFlood flood-opacity="0" result="BackgroundImageFix"/>
<feColorMatrix in="SourceAlpha" type="matrix" values="0 0 0 0 0 0 0 0 0 0 0 0 0 0 0 0 0 0 127 0" result="hardAlpha"/>
<feOffset dy="1"/>
<feGaussianBlur stdDeviation="2"/>
<feComposite in2="hardAlpha" operator="out"/>
<feColorMatrix type="matrix" values="0 0 0 0 0 0 0 0 0 0 0 0 0 0 0 0 0 0 0.2 0"/>
<feBlend mode="normal" in2="BackgroundImageFix" result="effect1_dropShadow_56_3481"/>
<feBlend mode="normal" in="SourceGraphic" in2="effect1_dropShadow_56_3481" result="shape"/>
</filter>
<filter id="filter3_d_56_3481" x="83.085" y="158.574" width="33.7744" height="32.1635" filterUnits="userSpaceOnUse" color-interpolation-filters="sRGB">
<feFlood flood-opacity="0" result="BackgroundImageFix"/>
<feColorMatrix in="SourceAlpha" type="matrix" values="0 0 0 0 0 0 0 0 0 0 0 0 0 0 0 0 0 0 127 0" result="hardAlpha"/>
<feOffset dy="1"/>
<feGaussianBlur stdDeviation="2"/>
<feComposite in2="hardAlpha" operator="out"/>
<feColorMatrix type="matrix" values="0 0 0 0 0 0 0 0 0 0 0 0 0 0 0 0 0 0 0.25 0"/>
<feBlend mode="normal" in2="BackgroundImageFix" result="effect1_dropShadow_56_3481"/>
<feBlend mode="normal" in="SourceGraphic" in2="effect1_dropShadow_56_3481" result="shape"/>
</filter>
<filter id="filter4_d_56_3481" x="135.166" y="153.347" width="26.4629" height="25.309" filterUnits="userSpaceOnUse" color-interpolation-filters="sRGB">
<feFlood flood-opacity="0" result="BackgroundImageFix"/>
<feColorMatrix in="SourceAlpha" type="matrix" values="0 0 0 0 0 0 0 0 0 0 0 0 0 0 0 0 0 0 127 0" result="hardAlpha"/>
<feOffset dy="1"/>
<feGaussianBlur stdDeviation="2"/>
<feComposite in2="hardAlpha" operator="out"/>
<feColorMatrix type="matrix" values="0 0 0 0 0 0 0 0 0 0 0 0 0 0 0 0 0 0 0.25 0"/>
<feBlend mode="normal" in2="BackgroundImageFix" result="effect1_dropShadow_56_3481"/>
<feBlend mode="normal" in="SourceGraphic" in2="effect1_dropShadow_56_3481" result="shape"/>
</filter>
<filter id="filter5_d_56_3481" x="39.1655" y="153.347" width="26.4629" height="25.309" filterUnits="userSpaceOnUse" color-interpolation-filters="sRGB">
<feFlood flood-opacity="0" result="BackgroundImageFix"/>
<feColorMatrix in="SourceAlpha" type="matrix" values="0 0 0 0 0 0 0 0 0 0 0 0 0 0 0 0 0 0 127 0" result="hardAlpha"/>
<feOffset dy="1"/>
<feGaussianBlur stdDeviation="2"/>
<feComposite in2="hardAlpha" operator="out"/>
<feColorMatrix type="matrix" values="0 0 0 0 0 0 0 0 0 0 0 0 0 0 0 0 0 0 0.25 0"/>
<feBlend mode="normal" in2="BackgroundImageFix" result="effect1_dropShadow_56_3481"/>
<feBlend mode="normal" in="SourceGraphic" in2="effect1_dropShadow_56_3481" result="shape"/>
</filter>
<linearGradient id="paint0_linear_56_3481" x1="132.194" y1="106.428" x2="158.753" y2="176.729" gradientUnits="userSpaceOnUse">
<stop stop-color="#9768DE"/>
<stop offset="1" stop-color="#3164BF"/>
</linearGradient>
<linearGradient id="paint1_linear_56_3481" x1="36.4771" y1="106.428" x2="63.0354" y2="176.729" gradientUnits="userSpaceOnUse">
<stop stop-color="#9768DE"/>
<stop offset="1" stop-color="#3164BF"/>
</linearGradient>
<linearGradient id="paint2_linear_56_3481" x1="76.9558" y1="89.3685" x2="114.683" y2="189.236" gradientUnits="userSpaceOnUse">
<stop stop-color="#58C5FA"/>
<stop offset="1" stop-color="#3E87F5"/>
</linearGradient>
<linearGradient id="paint3_linear_56_3481" x1="85.0842" y1="164.392" x2="85.0842" y2="192.308" gradientUnits="userSpaceOnUse">
<stop stop-color="#FFDDB5"/>
<stop offset="0.427" stop-color="#F2B532"/>
<stop offset="1" stop-color="#F2A000"/>
</linearGradient>
<linearGradient id="paint4_linear_56_3481" x1="137.732" y1="158.366" x2="137.732" y2="178.362" gradientUnits="userSpaceOnUse">
<stop stop-color="#FFDDB5"/>
<stop offset="0.427" stop-color="#F2B532"/>
<stop offset="1" stop-color="#F2A000"/>
</linearGradient>
<linearGradient id="paint5_linear_56_3481" x1="41.7323" y1="158.366" x2="41.7323" y2="178.362" gradientUnits="userSpaceOnUse">
<stop stop-color="#FFDDB5"/>
<stop offset="0.427" stop-color="#F2B532"/>
<stop offset="1" stop-color="#F2A000"/>
</linearGradient>
</defs>
</svg>
